<?xml version="1.0" encoding="utf-8"?>
<!-- Generator: Adobe Illustrator 21.1.0, SVG Export Plug-In . SVG Version: 6.00 Build 0)  -->
<svg version="1.1" id="Layer_1" xmlns="http://www.w3.org/2000/svg" xmlns:xlink="http://www.w3.org/1999/xlink" x="0px" y="0px"
	 width="66px" height="66px" viewBox="0 0 66 66" style="enable-background:new 0 0 66 66;" xml:space="preserve">
<style type="text/css">
	.st0{fill:url(#XMLID_2_);}
	.st1{fill:url(#XMLID_3_);}
	.st2{fill:url(#SVGID_1_);}
	.st3{fill:url(#XMLID_4_);}
	.st4{fill:url(#XMLID_5_);}
	.st5{fill:url(#XMLID_6_);}
	.st6{fill:none;}
</style>
<g>
	<linearGradient id="XMLID_2_" gradientUnits="userSpaceOnUse" x1="39.438" y1="1.7216" x2="44.5829" y2="67.7481">
		<stop  offset="0" style="stop-color:#009DB6"/>
		<stop  offset="0.49" style="stop-color:#00558A"/>
		<stop  offset="1" style="stop-color:#835FAC"/>
	</linearGradient>
	<polygon id="XMLID_606_" class="st0" points="34.5,42.2 34.5,24.4 49.9,33.3 	"/>
	<linearGradient id="XMLID_3_" gradientUnits="userSpaceOnUse" x1="19.9839" y1="3.2375" x2="25.1288" y2="69.264">
		<stop  offset="0" style="stop-color:#009DB6"/>
		<stop  offset="0.49" style="stop-color:#00558A"/>
		<stop  offset="1" style="stop-color:#835FAC"/>
	</linearGradient>
	<polygon id="XMLID_605_" class="st1" points="31.5,47.2 31.5,65 16.1,56.1 	"/>
	<linearGradient id="SVGID_1_" gradientUnits="userSpaceOnUse" x1="39.729" y1="1.699" x2="44.8739" y2="67.7254">
		<stop  offset="0" style="stop-color:#009DB6"/>
		<stop  offset="0.49" style="stop-color:#00558A"/>
		<stop  offset="1" style="stop-color:#835FAC"/>
	</linearGradient>
	<polygon class="st2" points="34.7,64.5 52.4,54.4 52.4,36.2 34.7,46.3 	"/>
	<linearGradient id="XMLID_4_" gradientUnits="userSpaceOnUse" x1="23.2265" y1="2.9849" x2="28.3715" y2="69.0114">
		<stop  offset="0" style="stop-color:#009DB6"/>
		<stop  offset="0.49" style="stop-color:#00558A"/>
		<stop  offset="1" style="stop-color:#835FAC"/>
	</linearGradient>
	<polygon id="XMLID_580_" class="st3" points="31.1,1 31.1,18.8 15.7,10 	"/>
	<linearGradient id="XMLID_5_" gradientUnits="userSpaceOnUse" x1="17.8109" y1="3.4069" x2="22.9558" y2="69.4334">
		<stop  offset="0" style="stop-color:#009DB6"/>
		<stop  offset="0.49" style="stop-color:#00558A"/>
		<stop  offset="1" style="stop-color:#835FAC"/>
	</linearGradient>
	<polygon id="XMLID_579_" class="st4" points="13.7,53.6 13.6,35.8 29.1,44.7 	"/>
	<linearGradient id="XMLID_6_" gradientUnits="userSpaceOnUse" x1="19.5744" y1="3.2695" x2="24.7193" y2="69.2959">
		<stop  offset="0" style="stop-color:#009DB6"/>
		<stop  offset="0.49" style="stop-color:#00558A"/>
		<stop  offset="1" style="stop-color:#835FAC"/>
	</linearGradient>
	<polygon id="XMLID_578_" class="st5" points="13.7,30.8 13.6,13 29.1,21.9 	"/>
	<polygon id="XMLID_577_" class="st6" points="31.5,24.4 31.5,42.2 16.1,33.3 	"/>
</g>
</svg>
