<?xml version="1.0" encoding="UTF-8"?>
<svg width="117px" height="27px" viewBox="0 0 117 27" version="1.1" xmlns="http://www.w3.org/2000/svg" xmlns:xlink="http://www.w3.org/1999/xlink">
    <!-- Generator: Sketch 49.3 (51167) - http://www.bohemiancoding.com/sketch -->
    <title>bPanel</title>
    <desc>Created with Illustrator</desc>
    <defs></defs>
  <g>
    <path d="M9.68209,26.3756a7.21794,7.21794,0,0,1-3.20382-.74437,6.07128,6.07128,0,0,1-2.11208-1.699v2.02633H1V1.25H4.46261V12.26443A6.88574,6.88574,0,0,1,6.3701,10.69866,6.72855,6.72855,0,0,1,9.7463,9.8829a7.88593,7.88593,0,0,1,3.17879.62858,7.38374,7.38374,0,0,1,2.47534,1.75383,7.91863,7.91863,0,0,1,1.59777,2.62487,9.14435,9.14435,0,0,1,.55871,3.2073,9.276,9.276,0,0,1-.55827,3.2221,8.02046,8.02046,0,0,1-1.581,2.64054,7.35468,7.35468,0,0,1-2.47512,1.77081A7.98763,7.98763,0,0,1,9.68209,26.3756ZM9.18215,12.86428a4.644,4.644,0,0,0-2.00652.427,4.73282,4.73282,0,0,0-1.5488,1.16138A5.40515,5.40515,0,0,0,4.62519,16.143a5.82159,5.82159,0,0,0,0,4.00477A5.20567,5.20567,0,0,0,5.6253,21.82061a4.84261,4.84261,0,0,0,1.55011,1.14745,4.64833,4.64833,0,0,0,2.00674.4266,4.7374,4.7374,0,0,0,2.10033-.4414,4.58415,4.58415,0,0,0,1.51594-1.17488,5.02206,5.02206,0,0,0,.92153-1.68592,6.47083,6.47083,0,0,0,0-3.95863,5.03383,5.03383,0,0,0-.92175-1.68549,4.41412,4.41412,0,0,0-1.51289-1.157A4.88543,4.88543,0,0,0,9.18215,12.86428Z" transform="translate(-1 -1.25)" style="fill: #fff"/>
    <path d="M20.92985,25.95859V2.79053h7.15527a14.36207,14.36207,0,0,1,3.39056.37523,7.48934,7.48934,0,0,1,2.64576,1.17575,5.43212,5.43212,0,0,1,1.70616,2.04026,6.72883,6.72883,0,0,1,.60006,2.954,6.5722,6.5722,0,0,1-.65034,3.0223,5.60757,5.60757,0,0,1-1.80411,2.07073,8.01363,8.01363,0,0,1-2.70649,1.17357,14.25986,14.25986,0,0,1-3.34225.37523H24.55286v9.981Zm6.77-13.123a10.0398,10.0398,0,0,0,2.08771-.20372,5.12456,5.12456,0,0,0,1.61519-.61378,2.808,2.808,0,0,0,1.01186-1.056,3.37321,3.37321,0,0,0,.35782-1.62629,3.17125,3.17125,0,0,0-.37088-1.605,3.02873,3.02873,0,0,0-1.01708-1.0469,4.46917,4.46917,0,0,0-1.57449-.579,11.42512,11.42512,0,0,0-2.04592-.17281H24.55286v6.90345Z" transform="translate(-1 -1.25)" style="fill: #fff"/>
    <path d="M44.12815,26.34383a8.12669,8.12669,0,0,1-1.93056-.24725,5.67778,5.67778,0,0,1-1.85373-.8188,4.68027,4.68027,0,0,1-1.39819-1.51485,4.53222,4.53222,0,0,1-.56045-2.328,4.12407,4.12407,0,0,1,.98966-2.89476,6.1352,6.1352,0,0,1,2.52932-1.59973,14.04971,14.04971,0,0,1,3.45673-.70171c1.18946-.101,2.40461-.155,3.61518-.16106V15.8831a2.79476,2.79476,0,0,0-.94286-2.3454,4.05645,4.05645,0,0,0-2.58917-.76961,5.79184,5.79184,0,0,0-2.33387.47883,5.9392,5.9392,0,0,0-1.84111,1.221l-.1726.17281L39.20141,12.3663l.15236-.14408a8.37014,8.37014,0,0,1,2.81836-1.71509,10.07528,10.07528,0,0,1,3.56077-.62422,8.132,8.132,0,0,1,2.92066.48057,5.62552,5.62552,0,0,1,2.05419,1.32114,5.44158,5.44158,0,0,1,1.20491,1.97409,7.24342,7.24342,0,0,1,.39765,2.41679v6.64357c0,.50713.01611,1.04821.04788,1.608a8.11074,8.11074,0,0,0,.17107,1.35727l.06464.27424H49.40771l-.04048-.17151a9.84911,9.84911,0,0,1-.24812-1.709,6.03583,6.03583,0,0,1-1.88529,1.56534A6.55137,6.55137,0,0,1,44.12815,26.34383Zm4.33277-7.63867c-.73936,0-1.51637.03221-2.30906.09577a10.5992,10.5992,0,0,0-2.13711.37654,3.92578,3.92578,0,0,0-1.53466.81837,1.74312,1.74312,0,0,0-.56807,1.37512,1.92032,1.92032,0,0,0,.24029,1.00729,2.044,2.044,0,0,0,.65208.66645,2.6802,2.6802,0,0,0,.91936.37044,5.3059,5.3059,0,0,0,1.07846.108,3.95989,3.95989,0,0,0,3.09173-1.1936,4.40477,4.40477,0,0,0,1.08216-3.0445v-.57982Z" transform="translate(-1 -1.25)" style="fill: #fff"/>
    <path d="M67.47816,25.95859V17.29521a10.16367,10.16367,0,0,0-.14126-1.72771,4.05225,4.05225,0,0,0-.501-1.39949,2.66371,2.66371,0,0,0-.97856-.94765,3.26147,3.26147,0,0,0-1.62237-.35608,3.41086,3.41086,0,0,0-2.76569,1.2837,5.312,5.312,0,0,0-1.08738,3.50026v8.31034H56.91927V13.7967q0-.60659-.032-1.56491c-.02133-.636-.05354-1.20448-.09555-1.68941l-.02111-.242h3.29915l.022.1985c.04288.387.07552.82925.09729,1.31418q.01306.301.02111.5598a4.89065,4.89065,0,0,1,.50865-.63859,5.94579,5.94579,0,0,1,1.18337-.9668A5.8803,5.8803,0,0,1,63.37,10.11666a5.96452,5.96452,0,0,1,1.6672-.23376,6.17674,6.17674,0,0,1,2.63009.51844A5.39006,5.39006,0,0,1,69.508,11.79126a5.6478,5.6478,0,0,1,1.08651,2.03765,8.60343,8.60343,0,0,1,.34628,2.47121v9.65847Z" transform="translate(-1 -1.25)" style="fill: #fff"/>
    <path d="M82.90677,26.3756a8.98774,8.98774,0,0,1-3.29066-.59288,7.66059,7.66059,0,0,1-2.61072-1.66938,7.76318,7.76318,0,0,1-1.71857-2.59353,8.75461,8.75461,0,0,1-.6264-3.35835,8.98076,8.98076,0,0,1,.61051-3.34007,7.71026,7.71026,0,0,1,1.70595-2.62661,7.8481,7.8481,0,0,1,2.58156-1.70159,8.83471,8.83471,0,0,1,6.32624-.04875,6.52817,6.52817,0,0,1,2.397,1.62846,7.34069,7.34069,0,0,1,1.50984,2.56436,10.13109,10.13109,0,0,1,.52715,3.364v.51322a4.40965,4.40965,0,0,1-.034.54108l-.02416.19545h-12.06a4.26149,4.26149,0,0,0,.3983,1.4822A4.532,4.532,0,0,0,79.62373,22.131a4.7824,4.7824,0,0,0,1.48786.92893,4.83876,4.83876,0,0,0,1.79518.33475,4.88839,4.88839,0,0,0,2.54934-.64207,5.24974,5.24974,0,0,0,1.69419-1.56926l.13516-.20242,2.47665,1.98846-.13037.17238a7.82572,7.82572,0,0,1-2.95657,2.44988A8.92683,8.92683,0,0,1,82.90677,26.3756Zm3.87266-9.81692a5.48632,5.48632,0,0,0-.28033-1.38948,3.6577,3.6577,0,0,0-.7559-1.28588,3.57451,3.57451,0,0,0-1.23952-.861,4.47054,4.47054,0,0,0-1.75731-.31864,4.675,4.675,0,0,0-1.73141.32125,4.51219,4.51219,0,0,0-1.40711.87147,4.60562,4.60562,0,0,0-.97965,1.30155,4.11551,4.11551,0,0,0-.41789,1.36075Z" transform="translate(-1 -1.25)" style="fill: #fff"/>
    <rect x="93.20872" width="3.46261" height="24.70859" style="fill: #fff"/>
  </g>
  </svg>